<?xml version="1.0" encoding="utf-8"?>
<!-- Generator: Adobe Illustrator 27.0.0, SVG Export Plug-In . SVG Version: 6.00 Build 0)  -->
<svg version="1.1" id="Layer_1" xmlns="http://www.w3.org/2000/svg" xmlns:xlink="http://www.w3.org/1999/xlink" x="0px" y="0px"
	 viewBox="150 110 940 350" style="enable-background:new 150 110 940 350;" xml:space="preserve">
<style type="text/css">
	.st0{fill:#F8A81B;}
	.st1{fill:#41403F;}
	.st2{fill:#EE4E35;}
</style>
<g>
	<g>
		<g>
			<path class="st0" d="M303.21,411.57c-5.44-1.88-10.88-3.75-16.33-5.63c2.21-1.82,5.56-3.25,6.36-5.57
				c1.22-3.52-1.93-5.78-5.03-7.28c-1.46-0.7-2.97-1.31-4.37-2.12c-3.75-2.15-7.62-4.14-11.13-6.63
				c-9.8-6.95-16.32-16.97-23.75-26.1c-3.87-4.76-5.73-9.87-2.51-16.14c1.47-2.86,2.1-6.66,1.73-9.88
				c-0.87-7.53-2.56-14.97-3.96-22.45c-4.6-24.67-5.97-49.22,2.3-73.5c1.19-3.48,0.87-6.95-3.02-8.66
				c-3.31-1.46-8.18,0.89-9.15,4.87c-2.34,9.55-5.33,19.15-5.95,28.86c-1.49,23.23,0.63,46.3,6.57,68.93
				c0.47,1.78,0.81,4.05,0.12,5.61c-4.1,9.31-8.25,18.62-12.94,27.64c-2.26,4.35-7.1,4.6-10.08,0.8c-7.07-9-14.16-18.02-20.62-27.46
				c-4.28-6.25-7.49-13.24-11.14-19.92c-9.16-16.76-13.93-34.4-7.81-53.17c3.14-9.62,8.28-18.57,12.18-27.97
				c6.11-14.73,14.01-28.5,24.04-40.74c8.06-9.84,17.29-18.84,26.8-27.32c5.07-4.52,11.47-8.34,17.92-10.35
				c8.87-2.76,17.84-4.11,26.03-9.57c6.66-4.44,15.08-6.39,22.89-8.96c17.52-5.76,35.55-7.53,53.77-4.8
				c20.51,3.07,40.09,9.07,57.55,20.84c3,2.02,6.67,4.38,10,4.34c9.99-0.13,18.49,3.12,26.98,8.04
				c9.59,5.55,17.56,12.94,24.32,21.25c6.77,8.33,12.52,17.77,17.23,27.44c7.35,15.1,13.95,30.61,19.93,46.3
				c7.21,18.89-0.72,36.38-8.53,52.67c-6.85,14.29-17.14,26.93-25.98,40.25c-1.6,2.4-3.36,4.76-5.39,6.79
				c-4.08,4.06-8.25,3.19-10.78-1.92c-2.94-5.95-6.26-11.73-8.87-17.82c-1.79-4.17-4.46-9.15-3.59-13.07
				c3.65-16.48,6.97-32.94,7.82-49.84c0.83-16.54-0.82-32.71-6.94-48.23c-2-5.08-5.31-6.97-9.18-5.44c-3.86,1.52-4.6,4.35-2.89,9.85
				c1.77,5.71,3.96,11.38,4.91,17.24c3.47,21.48,1.13,42.72-4.18,63.63c-2.6,10.25-5.16,20.11,1.89,29.72
				c0.74,1.01-0.08,3.77-0.95,5.27c-5.52,9.5-11.62,18.48-19.03,26.8c-6.41,7.2-14.09,11.68-22.28,15.75
				c-3.37,1.68-6.27,3.63-5.81,7.36c0.42,3.47,3.4,5.34,7.05,5.58c-6,2.05-12,4.09-18.01,6.14c0.92-11.43,1.8-22.86,2.81-34.27
				c0.12-1.39,0.61-3.55,1.54-3.95c7.73-3.35,13.8-8.59,19.72-14.54c9.89-9.93,13.97-21.49,12.75-35.17
				c-0.42-4.76-4.67-7.52-9.13-6.01c-3.64,1.23-4.29,4.17-4.5,7.73c-0.33,5.6,0.18,11.93-2.26,16.58
				c-4.8,9.13-12.52,16.13-22.6,19.54c-3.17,1.07-7.58,2-10.14,0.63c-6.48-3.48-13.01-7.59-17.94-12.9
				c-2.28-2.46-0.89-8.32-1.14-12.65c-0.07-1.13,0.04-2.28-0.06-3.41c-0.44-4.89-4.4-7.15-9.02-5.39c-4,1.52-3.88,4.81-3.73,8.07
				c0.33,7.29,1.01,14.59-6.63,19.15c-5.47,3.27-10.33,9.06-17.13,7.92c-10.78-1.81-19.27-8.04-25.39-17.22
				c-4.32-6.48-5.52-13.69-5.02-21.37c0.25-3.91-1.79-6.39-5.91-6.91c-4.02-0.51-6,2.08-6.37,5.21c-1.46,12.35,0.3,24.3,9.01,33.65
				c5.54,5.95,12.65,10.43,18.96,15.67c0.93,0.78,1.89,2.11,1.97,3.24C301.97,388.26,302.56,399.92,303.21,411.57z M334.5,322.46
				c6.48,0.16,12.95,0.33,19.43,0.49c4.77,1.66,9.21,0.83,13.51-1.62c3.35-1.91,6.7-3.86,10.23-5.38c5.2-2.24,6.67-5.03,4.49-10.3
				c-1.97-4.77-4.43-9.33-6.32-14.13c-2.8-7.09-5.79-9.5-13.29-9.55c-12.65-0.08-25.3-0.23-37.94,0.14
				c-2.73,0.08-6.05,1.58-7.97,3.53c-6.69,6.77-8.47,16.07-11.23,24.73c-0.45,1.4,1.59,4.51,3.27,5.48
				c4.16,2.41,8.78,4.02,13.2,5.98C326.01,323.66,330.18,324.52,334.5,322.46z M406.19,225.39c-7.53,0.03-11.28,4.81-11.27,14.38
				c0,4.7,7.43,10.05,13.78,9.92c5.35-0.11,10.19-5.56,10.24-11.53C419.02,230.49,413.9,225.36,406.19,225.39z M302.29,238.74
				c-0.15-9.09-3.94-13.46-11.59-13.35c-6.95,0.1-12.73,5.76-12.76,12.49c-0.02,5.74,5.61,11.9,10.73,11.74
				C296.24,249.38,302.38,244.48,302.29,238.74z"/>
			<path d="M399.41,406.88c-3.65-0.24-6.63-2.11-7.05-5.58c-0.45-3.73,2.44-5.68,5.81-7.36c8.19-4.07,15.86-8.56,22.28-15.75
				c7.42-8.32,13.51-17.29,19.03-26.8c0.87-1.5,1.69-4.26,0.95-5.27c-7.04-9.61-4.49-19.48-1.89-29.72
				c5.31-20.91,7.65-42.15,4.18-63.63c-0.95-5.86-3.13-11.53-4.91-17.24c-1.71-5.51-0.97-8.33,2.89-9.85
				c3.87-1.53,7.17,0.36,9.18,5.44c6.12,15.52,7.77,31.69,6.94,48.23c-0.85,16.9-4.17,33.36-7.82,49.84
				c-0.87,3.92,1.8,8.9,3.59,13.07c2.61,6.09,5.92,11.87,8.87,17.82c2.53,5.11,6.7,5.99,10.78,1.92c2.03-2.03,3.8-4.39,5.39-6.79
				c8.84-13.32,19.13-25.96,25.98-40.25c7.81-16.28,15.74-33.77,8.53-52.67c-5.99-15.69-12.59-31.21-19.93-46.3
				c-4.71-9.68-10.46-19.11-17.23-27.44c-6.75-8.31-14.73-15.7-24.32-21.25c-8.49-4.92-16.99-8.17-26.98-8.04
				c-3.33,0.04-7-2.31-10-4.34c-17.47-11.77-37.04-17.76-57.55-20.84c-18.22-2.73-36.25-0.97-53.77,4.8
				c-7.8,2.57-16.22,4.51-22.89,8.96c-8.19,5.46-17.16,6.81-26.03,9.57c-6.46,2.01-12.85,5.82-17.92,10.35
				c-9.51,8.48-18.74,17.48-26.8,27.32c-10.03,12.24-17.93,26.01-24.04,40.74c-3.9,9.39-9.05,18.35-12.18,27.97
				c-6.12,18.78-1.36,36.41,7.81,53.17c3.65,6.68,6.86,13.67,11.14,19.92c6.46,9.44,13.55,18.45,20.62,27.46
				c2.98,3.79,7.82,3.55,10.08-0.8c4.69-9.02,8.84-18.33,12.94-27.64c0.69-1.56,0.35-3.83-0.12-5.61
				c-5.95-22.63-8.06-45.69-6.57-68.93c0.62-9.71,3.62-19.31,5.95-28.86c0.97-3.98,5.84-6.32,9.15-4.87
				c3.89,1.71,4.21,5.18,3.02,8.66c-8.27,24.28-6.9,48.83-2.3,73.5c1.39,7.47,3.08,14.91,3.96,22.45c0.37,3.22-0.25,7.02-1.73,9.88
				c-3.22,6.26-1.36,11.38,2.51,16.14c7.43,9.14,13.95,19.15,23.75,26.1c3.51,2.49,7.39,4.48,11.13,6.63
				c1.4,0.8,2.91,1.41,4.37,2.12c3.1,1.5,6.25,3.76,5.03,7.28c-0.8,2.31-4.15,3.74-6.36,5.57c-20.04-5.6-33.04-19.99-44.78-35.93
				c-1.63-2.21-3.11-4.53-4.95-7.21c-1.18,2.29-2.35,4.32-3.3,6.46c-5,11.29-23.7,15.62-33.38,1.07c-1.7-2.56-3.8-4.85-5.75-7.24
				c-15.36-18.82-27.75-39.43-34.97-62.66c-3.42-10.99-3.88-22.7-1.34-34.16c0.93-4.2,2.44-8.33,4.18-12.27
				c6.99-15.78,12.68-32.21,22.67-46.53c7.56-10.83,14.28-22.4,22.92-32.29c12.06-13.8,26.17-26.29,44.24-30.9
				c12.31-3.14,22.7-9.72,34.28-13.88c13.41-4.81,27.16-8.14,41.42-9.44c14.85-1.36,29.42-0.08,43.95,3
				c18.26,3.87,34.66,11.97,50.76,21.07c3.68,2.08,8.73,1.61,13.07,2.64c19,4.51,33.74,15.54,46.29,30.09
				c12.26,14.21,21.65,30.15,29,47.28c4.89,11.4,9.4,22.99,13.51,34.7c4.41,12.56,3.1,25.43-0.82,37.75
				c-3.16,9.93-7.33,19.63-12,28.96c-7.91,15.82-18.45,29.99-29.44,43.79c-9.22,11.57-27.65,7.31-32.12-2.73
				c-0.65-1.47-1.5-2.86-2.24-4.24c-5.06,6.89-9.54,14.39-15.39,20.61c-6.89,7.31-13.59,15.23-23.52,18.94
				C405.9,404.08,402.67,405.53,399.41,406.88z"/>
			<path d="M303.21,411.57c-0.65-11.65-1.24-23.31-2.02-34.96c-0.08-1.13-1.03-2.47-1.97-3.24c-6.32-5.24-13.43-9.72-18.96-15.67
				c-8.71-9.36-10.47-21.31-9.01-33.65c0.37-3.14,2.35-5.73,6.37-5.21c4.12,0.53,6.16,3.01,5.91,6.91
				c-0.5,7.68,0.7,14.89,5.02,21.37c6.12,9.18,14.61,15.41,25.39,17.22c6.8,1.14,11.66-4.65,17.13-7.92
				c7.64-4.56,6.96-11.86,6.63-19.15c-0.15-3.25-0.27-6.55,3.73-8.07c4.62-1.76,8.58,0.49,9.02,5.39c0.1,1.13,0,2.27,0.06,3.41
				c0.25,4.32-1.14,10.19,1.14,12.65c4.93,5.32,11.46,9.43,17.94,12.9c2.57,1.38,6.98,0.45,10.14-0.63
				c10.08-3.41,17.8-10.41,22.6-19.54c2.45-4.65,1.93-10.98,2.26-16.58c0.21-3.55,0.86-6.5,4.5-7.73c4.46-1.51,8.7,1.25,9.13,6.01
				c1.22,13.68-2.86,25.24-12.75,35.17c-5.92,5.95-11.99,11.19-19.72,14.54c-0.93,0.4-1.41,2.56-1.54,3.95
				c-1.01,11.42-1.89,22.85-2.81,34.27c-2.47,6.27-4.14,13.04-7.6,18.71c-5.43,8.9-14.79,11.78-24.66,11.8
				c-6.55,0.01-13.15-1.18-19.63-2.39c-11.93-2.22-18.81-10.3-23.12-21.04C305.26,417.29,304.26,414.42,303.21,411.57z
				 M371.3,377.14c-11.35-1.25-18.98-8.34-26.87-15.55c-9.1,7.4-17.56,15.79-31.6,15.78c1.74,13.14,2.84,25.71,5.29,38.02
				c1.11,5.59,4.96,10.88,11.18,12.52c5.75,1.52,11.7,2.63,17.63,3.06c8.61,0.63,14.87-2.38,18.57-11.29
				C371.17,406.05,372.31,392.15,371.3,377.14z"/>
			<path d="M334.5,322.46c-4.32,2.07-8.49,1.21-12.63-0.63c-4.42-1.96-9.04-3.58-13.2-5.98c-1.67-0.97-3.71-4.08-3.27-5.48
				c2.76-8.66,4.54-17.96,11.23-24.73c1.93-1.95,5.25-3.45,7.97-3.53c12.64-0.37,25.29-0.22,37.94-0.14
				c7.5,0.05,10.5,2.46,13.29,9.55c1.89,4.8,4.35,9.36,6.32,14.13c2.18,5.26,0.7,8.06-4.49,10.3c-3.53,1.52-6.88,3.47-10.23,5.38
				c-4.31,2.46-8.74,3.28-13.51,1.62c-2.09-2.58-4.87-4.88-6.04-7.82c-0.85-2.13-0.37-5.76,1.02-7.52c1.23-1.56,4.67-2.22,6.91-1.86
				c1.85,0.29,3.38,2.65,5.28,4.3c2.24-1.13,4.65-2.34,7.25-3.64c-1.51-3.5-2.68-6.67-4.27-9.61c-0.55-1.01-2.16-2.04-3.3-2.06
				c-11.18-0.15-22.36-0.14-33.53,0c-1.03,0.01-2.5,0.92-2.97,1.83c-1.7,3.22-3.06,6.63-4.62,10.12c4.59,2.27,8.13,5.42,12.46-0.11
				c2.62-3.35,8.48-0.22,9.13,4.55C342,316.64,338.27,319.57,334.5,322.46z"/>
			<path class="st1" d="M334.5,322.46c3.77-2.89,7.5-5.81,6.74-11.36c-0.65-4.76-6.51-7.9-9.13-4.55
				c-4.33,5.53-7.86,2.39-12.46,0.11c1.56-3.49,2.92-6.89,4.62-10.12c0.48-0.91,1.95-1.82,2.97-1.83c11.18-0.13,22.36-0.15,33.53,0
				c1.14,0.02,2.75,1.04,3.3,2.06c1.59,2.94,2.76,6.12,4.27,9.61c-2.6,1.31-5.01,2.52-7.25,3.64c-1.9-1.65-3.43-4-5.28-4.3
				c-2.24-0.36-5.68,0.31-6.91,1.86c-1.39,1.77-1.87,5.39-1.02,7.52c1.17,2.94,3.95,5.25,6.04,7.82
				C347.46,322.78,340.98,322.62,334.5,322.46z"/>
			<path d="M406.19,225.39c7.7-0.03,12.82,5.1,12.75,12.77c-0.05,5.97-4.9,11.42-10.24,11.53c-6.35,0.13-13.78-5.22-13.78-9.92
				C394.91,230.2,398.66,225.42,406.19,225.39z"/>
			<path d="M302.29,238.74c0.09,5.74-6.04,10.64-13.61,10.88c-5.12,0.16-10.75-6-10.73-11.74c0.03-6.73,5.8-12.39,12.76-12.49
				C298.34,225.27,302.14,229.65,302.29,238.74z"/>
			<path class="st2" d="M371.3,377.14c1,15.01-0.14,28.92-5.79,42.53c-3.7,8.91-9.96,11.92-18.57,11.29
				c-5.92-0.43-11.87-1.55-17.63-3.06c-6.22-1.64-10.07-6.93-11.18-12.52c-2.45-12.31-3.55-24.88-5.29-38.02
				c14.04,0.01,22.49-8.38,31.6-15.78C352.32,368.8,359.96,375.89,371.3,377.14z"/>
		</g>
		<g>
			<g>
				<path d="M620.24,338.16V224.13h45.23c8.37,0,15.34,1.26,20.93,3.79c5.59,2.53,9.77,5.98,12.55,10.37
					c2.78,4.39,4.17,9.44,4.17,15.15c0,4.49-0.89,8.41-2.68,11.75c-1.79,3.34-4.22,6.07-7.31,8.19c-3.09,2.12-6.6,3.63-10.52,4.55
					v1.15c4.29,0.15,8.33,1.36,12.13,3.63c3.8,2.27,6.89,5.43,9.26,9.49c2.37,4.06,3.56,8.89,3.56,14.5c0,6.02-1.48,11.4-4.44,16.15
					c-2.96,4.75-7.34,8.48-13.13,11.21c-5.79,2.73-13,4.09-21.62,4.09H620.24z M643.58,272.04h18.44c3.32,0,6.3-0.6,8.95-1.8
					c2.65-1.2,4.73-2.91,6.24-5.13c1.5-2.22,2.26-4.86,2.26-7.92c0-4.13-1.47-7.5-4.4-10.1c-2.93-2.6-7.13-3.9-12.59-3.9h-18.9
					V272.04z M643.58,318.95h20.2c6.84,0,11.84-1.33,15-3.98c3.16-2.65,4.75-6.15,4.75-10.48c0-3.21-0.78-6.06-2.33-8.53
					c-1.56-2.47-3.76-4.41-6.62-5.82c-2.86-1.4-6.25-2.1-10.18-2.1h-20.82V318.95z"/>
				<path d="M723.41,338.16V252.6h22.19v14.92h0.92c1.58-5.31,4.22-9.31,7.92-12.02c3.7-2.7,7.95-4.06,12.74-4.06
					c1.17,0,2.45,0.07,3.83,0.19c1.38,0.13,2.58,0.32,3.6,0.57v20.51c-1.02-0.36-2.5-0.64-4.44-0.84c-1.94-0.2-3.78-0.31-5.51-0.31
					c-3.47,0-6.61,0.75-9.41,2.26c-2.81,1.51-4.99,3.6-6.54,6.28c-1.56,2.68-2.33,5.8-2.33,9.38v48.67H723.41z"/>
				<path d="M816.7,339.23c-5.92,0-11.1-1.29-15.54-3.86c-4.44-2.58-7.87-6.28-10.29-11.1c-2.42-4.82-3.64-10.57-3.64-17.26V252.6
					h22.96v50.43c0,5.31,1.38,9.46,4.13,12.47c2.76,3.01,6.53,4.52,11.33,4.52c3.26,0,6.15-0.7,8.65-2.1
					c2.5-1.4,4.45-3.44,5.85-6.12c1.4-2.68,2.1-5.9,2.1-9.68V252.6h23.04v85.56h-21.74l-0.31-21.35h1.3
					c-2.25,7.19-5.68,12.73-10.29,16.61C829.64,337.29,823.79,339.23,816.7,339.23z"/>
				<path d="M907.77,288.64v49.52h-22.96V252.6h21.66l0.38,21.35h-1.38c2.24-7.14,5.65-12.67,10.22-16.57
					c4.57-3.9,10.47-5.85,17.72-5.85c5.92,0,11.08,1.29,15.5,3.86c4.41,2.58,7.83,6.28,10.26,11.1c2.42,4.82,3.63,10.57,3.63,17.26
					v54.41h-22.96v-50.43c0-5.31-1.37-9.46-4.09-12.47c-2.73-3.01-6.52-4.52-11.37-4.52c-3.21,0-6.08,0.7-8.61,2.1
					c-2.53,1.4-4.49,3.43-5.89,6.08C908.47,281.58,907.77,284.82,907.77,288.64z"/>
				<path d="M1020.66,339.85c-8.57,0-16-1.85-22.27-5.55c-6.28-3.7-11.11-8.85-14.5-15.46c-3.39-6.61-5.09-14.3-5.09-23.07
					c0-8.88,1.7-16.62,5.09-23.23c3.39-6.61,8.23-11.76,14.5-15.46c6.28-3.7,13.7-5.55,22.27-5.55c8.62,0,16.06,1.85,22.31,5.55
					c6.25,3.7,11.07,8.85,14.46,15.46c3.39,6.61,5.09,14.35,5.09,23.23c0,8.78-1.7,16.47-5.09,23.07
					c-3.39,6.61-8.22,11.76-14.46,15.46C1036.71,338,1029.28,339.85,1020.66,339.85z M1020.66,321.78c4.08,0,7.5-1.13,10.26-3.4
					c2.75-2.27,4.82-5.38,6.2-9.34c1.38-3.95,2.07-8.41,2.07-13.36c0-5.05-0.69-9.54-2.07-13.47c-1.38-3.93-3.44-7.01-6.2-9.26
					c-2.76-2.25-6.17-3.37-10.26-3.37c-4.08,0-7.49,1.12-10.22,3.37c-2.73,2.25-4.78,5.33-6.16,9.26
					c-1.38,3.93-2.07,8.42-2.07,13.47c0,4.95,0.69,9.4,2.07,13.36c1.38,3.96,3.43,7.07,6.16,9.34
					C1013.17,320.65,1016.57,321.78,1020.66,321.78z"/>
			</g>
		</g>
	</g>
</g>
</svg>
